# xmcd CD database file
# Copyright (C) 1997 Ti Kan
#
# Track frame offsets:
#  150
#  18985
#  36415
#  55300
#  77107
#  90972
#  109535
#  137560
#  154760
#  177347
#
# Disc length: 2577 seconds
#
# Revision: 1
# Processed by: cddbd v1.4b41PL1 Copyright (c) Steve Scherf et al.
# Submitted via: CDWizzard Release:4.32
#
DISCID=740a0f0a
DTITLE=The Special Aka - In The Studio
DYEAR=1900
DGENRE=
TTITLE0=Bright Lights
TTITLE1=The Lonely Crowd
TTITLE2=Housebound
TTITLE3=What I Like Most About You Is Your Girlfriend
TTITLE4=Night On The Tiles
TTITLE5=Free Nelson Mandela
TTITLE6=War Crimes
TTITLE7=Racist Friend
TTITLE8=Alcohol
TTITLE9=Break Down The Door
EXTD=
EXTT0=
EXTT1=
EXTT2=
EXTT3=
EXTT4=
EXTT5=
EXTT6=
EXTT7=
EXTT8=
EXTT9=
PLAYORDER=
